<mxfile host="app.diagrams.net" modified="2024-04-22T18:46:21.899Z" agent="Mozilla/5.0 (Windows NT 10.0; Win64; x64) AppleWebKit/537.36 (KHTML, like Gecko) Chrome/124.0.0.0 Safari/537.36" etag="DfctBxkx6iblQzBEj7f7" version="24.2.7" type="device">
  <diagram name="Page-1" id="FY0enV5npV5FjREwJcvH">
    <mxGraphModel dx="1434" dy="778" grid="1" gridSize="10" guides="1" tooltips="1" connect="1" arrows="1" fold="1" page="1" pageScale="1" pageWidth="850" pageHeight="1100" math="0" shadow="0">
      <root>
        <mxCell id="0" />
        <mxCell id="1" parent="0" />
        <mxCell id="AmFWipgEnWB4bh-kiHto-1" value="Material App" style="rounded=0;whiteSpace=wrap;html=1;" vertex="1" parent="1">
          <mxGeometry x="330" y="140" width="120" height="60" as="geometry" />
        </mxCell>
        <mxCell id="AmFWipgEnWB4bh-kiHto-5" value="" style="edgeStyle=orthogonalEdgeStyle;rounded=0;orthogonalLoop=1;jettySize=auto;html=1;" edge="1" parent="1" source="AmFWipgEnWB4bh-kiHto-2" target="AmFWipgEnWB4bh-kiHto-4">
          <mxGeometry relative="1" as="geometry" />
        </mxCell>
        <mxCell id="AmFWipgEnWB4bh-kiHto-7" value="" style="edgeStyle=orthogonalEdgeStyle;rounded=0;orthogonalLoop=1;jettySize=auto;html=1;" edge="1" parent="1" source="AmFWipgEnWB4bh-kiHto-2" target="AmFWipgEnWB4bh-kiHto-6">
          <mxGeometry relative="1" as="geometry" />
        </mxCell>
        <mxCell id="AmFWipgEnWB4bh-kiHto-9" value="" style="edgeStyle=orthogonalEdgeStyle;rounded=0;orthogonalLoop=1;jettySize=auto;html=1;" edge="1" parent="1" source="AmFWipgEnWB4bh-kiHto-2" target="AmFWipgEnWB4bh-kiHto-8">
          <mxGeometry relative="1" as="geometry" />
        </mxCell>
        <mxCell id="AmFWipgEnWB4bh-kiHto-2" value="Scaffold" style="rounded=0;whiteSpace=wrap;html=1;" vertex="1" parent="1">
          <mxGeometry x="330" y="290" width="120" height="60" as="geometry" />
        </mxCell>
        <mxCell id="AmFWipgEnWB4bh-kiHto-3" value="" style="endArrow=classic;html=1;rounded=0;exitX=0.5;exitY=1;exitDx=0;exitDy=0;entryX=0.5;entryY=0;entryDx=0;entryDy=0;" edge="1" parent="1" source="AmFWipgEnWB4bh-kiHto-1" target="AmFWipgEnWB4bh-kiHto-2">
          <mxGeometry width="50" height="50" relative="1" as="geometry">
            <mxPoint x="400" y="430" as="sourcePoint" />
            <mxPoint x="450" y="380" as="targetPoint" />
          </mxGeometry>
        </mxCell>
        <mxCell id="AmFWipgEnWB4bh-kiHto-4" value="Color" style="rounded=0;whiteSpace=wrap;html=1;" vertex="1" parent="1">
          <mxGeometry x="100" y="400" width="120" height="60" as="geometry" />
        </mxCell>
        <mxCell id="AmFWipgEnWB4bh-kiHto-15" value="" style="edgeStyle=orthogonalEdgeStyle;rounded=0;orthogonalLoop=1;jettySize=auto;html=1;" edge="1" parent="1" source="AmFWipgEnWB4bh-kiHto-6" target="AmFWipgEnWB4bh-kiHto-14">
          <mxGeometry relative="1" as="geometry" />
        </mxCell>
        <mxCell id="AmFWipgEnWB4bh-kiHto-16" value="" style="edgeStyle=orthogonalEdgeStyle;rounded=0;orthogonalLoop=1;jettySize=auto;html=1;" edge="1" parent="1" source="AmFWipgEnWB4bh-kiHto-6" target="AmFWipgEnWB4bh-kiHto-14">
          <mxGeometry relative="1" as="geometry" />
        </mxCell>
        <mxCell id="AmFWipgEnWB4bh-kiHto-18" value="" style="edgeStyle=orthogonalEdgeStyle;rounded=0;orthogonalLoop=1;jettySize=auto;html=1;" edge="1" parent="1" source="AmFWipgEnWB4bh-kiHto-6" target="AmFWipgEnWB4bh-kiHto-17">
          <mxGeometry relative="1" as="geometry" />
        </mxCell>
        <mxCell id="AmFWipgEnWB4bh-kiHto-6" value="AppBar" style="rounded=0;whiteSpace=wrap;html=1;" vertex="1" parent="1">
          <mxGeometry x="330" y="400" width="120" height="60" as="geometry" />
        </mxCell>
        <mxCell id="AmFWipgEnWB4bh-kiHto-11" value="" style="edgeStyle=orthogonalEdgeStyle;rounded=0;orthogonalLoop=1;jettySize=auto;html=1;" edge="1" parent="1" source="AmFWipgEnWB4bh-kiHto-8" target="AmFWipgEnWB4bh-kiHto-10">
          <mxGeometry relative="1" as="geometry" />
        </mxCell>
        <mxCell id="AmFWipgEnWB4bh-kiHto-8" value="Center" style="rounded=0;whiteSpace=wrap;html=1;" vertex="1" parent="1">
          <mxGeometry x="480" y="400" width="120" height="60" as="geometry" />
        </mxCell>
        <mxCell id="AmFWipgEnWB4bh-kiHto-13" value="" style="edgeStyle=orthogonalEdgeStyle;rounded=0;orthogonalLoop=1;jettySize=auto;html=1;" edge="1" parent="1" source="AmFWipgEnWB4bh-kiHto-10" target="AmFWipgEnWB4bh-kiHto-12">
          <mxGeometry relative="1" as="geometry" />
        </mxCell>
        <mxCell id="AmFWipgEnWB4bh-kiHto-10" value="Image" style="rounded=0;whiteSpace=wrap;html=1;" vertex="1" parent="1">
          <mxGeometry x="480" y="540" width="120" height="60" as="geometry" />
        </mxCell>
        <mxCell id="AmFWipgEnWB4bh-kiHto-12" value="NetworkImage" style="rounded=0;whiteSpace=wrap;html=1;" vertex="1" parent="1">
          <mxGeometry x="480" y="680" width="120" height="60" as="geometry" />
        </mxCell>
        <mxCell id="AmFWipgEnWB4bh-kiHto-14" value="Text" style="rounded=0;whiteSpace=wrap;html=1;" vertex="1" parent="1">
          <mxGeometry x="200" y="540" width="120" height="60" as="geometry" />
        </mxCell>
        <mxCell id="AmFWipgEnWB4bh-kiHto-17" value="Color" style="rounded=0;whiteSpace=wrap;html=1;" vertex="1" parent="1">
          <mxGeometry x="330" y="540" width="120" height="60" as="geometry" />
        </mxCell>
      </root>
    </mxGraphModel>
  </diagram>
</mxfile>
